<svg width="47" height="47" viewBox="0 0 47 47" fill="none" xmlns="http://www.w3.org/2000/svg">
<path d="M17.5 16.75H12.5L10.6484 13.9727C10.3711 13.5547 10.668 13 11.168 13H18.832C19.332 13 19.6289 13.5547 19.3516 13.9727L17.5 16.75ZM12.5 18H17.5C17.6484 18.0977 17.8164 18.207 18.0078 18.3281C20.2227 19.7461 25 22.8008 25 29.25C25 31.3203 23.3203 33 21.25 33H8.75C6.67969 33 5 31.3203 5 29.25C5 22.8008 9.77734 19.7461 11.9922 18.3281C12.1797 18.207 12.3516 18.0977 12.5 18ZM15.7812 21.4375C15.7812 21.0078 15.4297 20.6562 15 20.6562C14.5703 20.6562 14.2188 21.0078 14.2188 21.4375V21.9844C13.9219 22.0508 13.625 22.1563 13.3516 22.3164C12.8086 22.6406 12.3398 23.207 12.3438 24.0312C12.3477 24.8242 12.8125 25.3242 13.3086 25.6211C13.7383 25.8789 14.2734 26.043 14.6992 26.168L14.7656 26.1875C15.2578 26.3359 15.6172 26.4531 15.8594 26.6055C16.0586 26.7305 16.0859 26.8164 16.0898 26.9258C16.0937 27.1211 16.0195 27.2383 15.8594 27.3359C15.6641 27.457 15.3555 27.5313 15.0234 27.5195C14.5898 27.5039 14.1836 27.3672 13.6523 27.1875C13.5625 27.1563 13.4688 27.125 13.3711 27.0937C12.9609 26.957 12.5195 27.1797 12.3828 27.5859C12.2461 27.9922 12.4688 28.4375 12.875 28.5742C12.9492 28.5977 13.0312 28.625 13.1133 28.6562C13.4375 28.7695 13.8125 28.8984 14.2148 28.9844V29.5547C14.2148 29.9844 14.5664 30.3359 14.9961 30.3359C15.4258 30.3359 15.7773 29.9844 15.7773 29.5547V29.0156C16.0898 28.9492 16.4023 28.8398 16.6836 28.6641C17.2422 28.3164 17.6641 27.7227 17.6523 26.9062C17.6406 26.1133 17.1953 25.6016 16.6914 25.2812C16.2422 25 15.6797 24.8281 15.2422 24.6953L15.2148 24.6875C14.7148 24.5352 14.3594 24.4258 14.1094 24.2773C13.9062 24.1563 13.9023 24.0859 13.9023 24.0156C13.9023 23.8711 13.957 23.7617 14.1445 23.6523C14.3555 23.5273 14.6758 23.4531 14.9844 23.457C15.3594 23.4609 15.7734 23.543 16.2031 23.6602C16.6211 23.7695 17.0469 23.5234 17.1602 23.1055C17.2734 22.6875 17.0234 22.2617 16.6055 22.1484C16.3516 22.082 16.0703 22.0156 15.7812 21.9648V21.4219V21.4375Z" fill="#272A32"/>
</svg>
