<svg width="30" height="30" viewBox="0 0 30 30" fill="none" xmlns="http://www.w3.org/2000/svg">
<path fill-rule="evenodd" clip-rule="evenodd" d="M23.9648 21.6239C23.9648 17.8228 22.1859 14.2406 19.1578 11.9433C18.2555 11.2589 17.3709 10.5877 16.6514 10.042C15.675 9.30094 14.325 9.30094 13.3486 10.042C12.6291 10.5877 11.7445 11.2589 10.8422 11.9433C7.81406 14.2406 6.03516 17.8228 6.03516 21.6239C6.03516 21.7148 6.03516 21.8063 6.03516 21.8967C6.03516 24.5602 8.19375 26.7188 10.8572 26.7188H19.1428C21.8063 26.7188 23.9648 24.5602 23.9648 21.8967V21.6239Z" stroke="white" stroke-width="2" stroke-miterlimit="2" stroke-linecap="round" stroke-linejoin="round"/>
<path d="M12.6563 10.567C12.6563 10.567 12 7.605 11.5842 5.72766C11.4961 5.33016 11.572 4.91437 11.7942 4.57359C12.0164 4.23234 12.3661 3.99562 12.7655 3.91547C12.8217 3.90422 12.8766 3.89344 12.93 3.88266C13.3524 3.79828 13.7906 3.89766 14.1352 4.15594C14.3789 4.33875 14.6663 4.55438 14.9119 4.73859C15.2653 5.00344 15.7172 5.10094 16.1484 5.00531C16.3505 4.96031 16.5853 4.90828 16.8366 4.8525C17.3883 4.72969 17.9625 4.92469 18.3258 5.35828C18.6886 5.79234 18.7795 6.39187 18.5616 6.91359C17.8673 8.57484 17.1094 10.3894 17.1094 10.3894" stroke="white" stroke-width="2" stroke-miterlimit="2" stroke-linecap="round" stroke-linejoin="round"/>
<path d="M11.25 25.3125C11.25 25.3125 8.85984 25.2741 7.96875 22.9688" stroke="white" stroke-width="2" stroke-miterlimit="2" stroke-linecap="round" stroke-linejoin="round"/>
<path d="M15.9375 17.1094C15.7233 16.8248 15.383 16.6406 15 16.6406C14.3531 16.6406 13.8281 17.1656 13.8281 17.8125C13.8281 18.4594 14.3531 18.9844 15 18.9844C15.6469 18.9844 16.1719 19.5094 16.1719 20.1562C16.1719 20.8031 15.6469 21.3281 15 21.3281C14.617 21.3281 14.2767 21.1439 14.0625 20.8594" stroke="white" stroke-width="2" stroke-miterlimit="2" stroke-linecap="round" stroke-linejoin="round"/>
<path d="M15 16.6406V15.7031" stroke="white" stroke-width="2" stroke-miterlimit="2" stroke-linecap="round" stroke-linejoin="round"/>
<path d="M15 22.2656V21.3281" stroke="white" stroke-width="2" stroke-miterlimit="2" stroke-linecap="round" stroke-linejoin="round"/>
</svg>
