<svg width="30" height="30" viewBox="0 0 30 30" fill="none" xmlns="http://www.w3.org/2000/svg">
<path d="M25.215 8.4375H22.8888L17.1813 14.1425C17.3778 14.6435 17.3959 15.1969 17.2324 15.7096C17.069 16.2224 16.734 16.6632 16.2837 16.958C15.8334 17.2528 15.2954 17.3835 14.7601 17.3283C14.2247 17.273 13.7248 17.0351 13.3442 16.6545C12.9637 16.274 12.7258 15.774 12.6705 15.2387C12.6152 14.7034 12.746 14.1653 13.0408 13.7151C13.3355 13.2648 13.7764 12.9298 14.2891 12.7663C14.8019 12.6028 15.3553 12.6209 15.8563 12.8175L21.5625 7.11125V4.785C21.5626 4.47372 21.6863 4.17521 21.9063 3.955L24.0688 1.7925C24.1087 1.75211 24.1589 1.72341 24.214 1.70953C24.2691 1.69565 24.3269 1.69711 24.3813 1.71375C24.4925 1.74625 24.575 1.83875 24.5975 1.9525L25.1725 4.82875L28.0475 5.40375C28.16 5.42625 28.2525 5.50875 28.285 5.62C28.3014 5.67404 28.3029 5.73152 28.2892 5.78633C28.2756 5.84113 28.2473 5.89121 28.2075 5.93125L26.0438 8.09375C25.935 8.2027 25.8058 8.28914 25.6636 8.34813C25.5214 8.40711 25.369 8.43748 25.215 8.4375Z" fill="white"/>
<path d="M3.28125 15C3.28125 18.108 4.5159 21.0887 6.71359 23.2864C8.91128 25.4841 11.892 26.7188 15 26.7188C16.5389 26.7188 18.0628 26.4156 19.4846 25.8267C20.9064 25.2378 22.1982 24.3746 23.2864 23.2864C24.3746 22.1982 25.2378 20.9064 25.8267 19.4846C26.4156 18.0628 26.7188 16.5389 26.7188 15C26.7188 13.8775 26.5613 12.7925 26.2675 11.7663C26.2091 11.5306 26.2444 11.2815 26.3659 11.0714C26.4875 10.8612 26.6858 10.7064 26.9192 10.6395C27.1526 10.5727 27.4028 10.5989 27.6172 10.7128C27.8316 10.8266 27.9935 11.0192 28.0688 11.25C28.4112 12.4425 28.5938 13.7 28.5938 15C28.5938 22.5075 22.5075 28.5938 15 28.5938C7.4925 28.5938 1.40625 22.5075 1.40625 15C1.40625 7.4925 7.4925 1.40625 15 1.40625C16.2688 1.405 17.53 1.58125 18.75 1.93C18.869 1.96337 18.9801 2.01992 19.0772 2.0964C19.1742 2.17288 19.2551 2.26779 19.3154 2.37566C19.3756 2.48353 19.4139 2.60224 19.4281 2.72497C19.4423 2.8477 19.4321 2.97202 19.3981 3.09079C19.364 3.20956 19.3069 3.32043 19.2299 3.41704C19.1529 3.51364 19.0575 3.59408 18.9493 3.65371C18.8411 3.71334 18.7222 3.75101 18.5994 3.76453C18.4766 3.77805 18.3523 3.76716 18.2337 3.7325C17.1821 3.43216 16.0937 3.28027 15 3.28125C11.892 3.28125 8.91128 4.5159 6.71359 6.71359C4.5159 8.91128 3.28125 11.892 3.28125 15Z" fill="white"/>
<path d="M8.90626 15C8.90975 15.8279 9.08194 16.6464 9.41232 17.4055C9.7427 18.1647 10.2243 18.8485 10.8278 19.4153C11.4313 19.9821 12.144 20.4199 12.9223 20.7021C13.7007 20.9842 14.5284 21.1048 15.3549 21.0564C16.1814 21.008 16.9893 20.7917 17.7294 20.4206C18.4695 20.0495 19.1262 19.5315 19.6594 18.8981C20.1926 18.2648 20.5912 17.5294 20.8307 16.7369C21.0702 15.9444 21.1457 15.1114 21.0525 14.2887C21.0263 14.1221 21.0456 13.9515 21.1084 13.795C21.1712 13.6385 21.2752 13.5019 21.4093 13.3996C21.5435 13.2974 21.7028 13.2333 21.8704 13.2142C22.038 13.1952 22.2076 13.2218 22.3613 13.2913C22.675 13.4313 22.8863 13.73 22.9138 14.0725C23.1078 15.7166 22.7849 17.3802 21.9899 18.8323C21.1948 20.2844 19.9671 21.4527 18.4775 22.1748C16.9878 22.897 15.3102 23.1371 13.6778 22.8618C12.0453 22.5865 10.5392 21.8095 9.36876 20.6388C8.19863 19.4693 7.42142 17.9647 7.14492 16.3336C6.86842 14.7025 7.10633 13.0258 7.82567 11.5361C8.545 10.0463 9.7101 8.81727 11.1594 8.01948C12.6086 7.22169 14.2703 6.89466 15.9138 7.08375C16.038 7.09528 16.1587 7.13149 16.2688 7.19027C16.3788 7.24905 16.4761 7.3292 16.5547 7.42604C16.6334 7.52288 16.692 7.63446 16.727 7.75422C16.762 7.87399 16.7728 7.99954 16.7586 8.12351C16.7445 8.24749 16.7057 8.36739 16.6446 8.47619C16.5835 8.585 16.5014 8.68051 16.4029 8.75714C16.3044 8.83376 16.1916 8.88996 16.0711 8.92243C15.9507 8.95491 15.8249 8.96301 15.7013 8.94625C14.8475 8.84755 13.9826 8.9305 13.1632 9.18967C12.3438 9.44884 11.5885 9.87836 10.9468 10.45C10.3051 11.0217 9.79161 11.7226 9.43994 12.5068C9.08826 13.2909 8.90639 14.1406 8.90626 15Z" fill="white"/>
</svg>
