<svg width="48" height="48" viewBox="0 0 48 48" fill="none" xmlns="http://www.w3.org/2000/svg">
<g clip-path="url(#clip0_62_111)">
<path d="M19.153 16.799L16.722 31.065H20.61L23.043 16.799H19.153Z" fill="#272A32"/>
<path d="M13.462 16.815L9.654 26.544L9.248 25.075C8.497 23.305 6.365 20.763 3.862 19.161L7.344 31.058L11.458 31.051L17.581 16.812L13.462 16.815Z" fill="#272A32"/>
<path d="M7.772 17.836C7.546 16.967 6.891 16.708 6.078 16.677H0.05L0 16.961C4.691 18.099 7.795 20.841 9.083 24.138L7.772 17.836Z" fill="#272A32"/>
<path d="M30.923 19.534C32.195 19.514 33.117 19.792 33.833 20.08L34.184 20.245L34.71 17.153C33.94 16.864 32.733 16.554 31.227 16.554C27.385 16.554 24.677 18.489 24.656 21.262C24.631 23.311 26.585 24.455 28.061 25.138C29.576 25.838 30.084 26.283 30.077 26.908C30.065 27.863 28.869 28.301 27.752 28.301C26.195 28.301 25.368 28.086 24.091 27.554L23.59 27.326L23.043 30.519C23.953 30.918 25.632 31.261 27.375 31.279C31.462 31.279 34.118 29.367 34.146 26.404C34.163 24.783 33.126 23.546 30.879 22.531C29.519 21.869 28.687 21.429 28.695 20.761C28.695 20.168 29.401 19.534 30.923 19.534Z" fill="#272A32"/>
<path d="M44.688 16.815H41.684C40.751 16.815 40.057 17.069 39.647 17.999L33.874 31.073H37.957C37.957 31.073 38.623 29.315 38.774 28.93C39.221 28.93 43.188 28.936 43.753 28.936C43.869 29.434 44.227 31.073 44.227 31.073H47.834L44.688 16.815ZM39.893 26.01C40.213 25.191 41.442 22.023 41.442 22.023C41.421 22.062 41.759 21.198 41.96 20.661L42.222 21.891C42.222 21.891 42.967 25.297 43.123 26.01H39.893Z" fill="#272A32"/>
</g>
<defs>
<clipPath id="clip0_62_111">
<rect width="47.834" height="47.834" fill="white"/>
</clipPath>
</defs>
</svg>
